<?xml version="1.0" encoding="UTF-8" standalone="no"?>
<svg
   xmlns:dc="http://purl.org/dc/elements/1.1/"
   xmlns:cc="http://creativecommons.org/ns#"
   xmlns:rdf="http://www.w3.org/1999/02/22-rdf-syntax-ns#"
   xmlns:svg="http://www.w3.org/2000/svg"
   xmlns="http://www.w3.org/2000/svg"
   xmlns:sodipodi="http://sodipodi.sourceforge.net/DTD/sodipodi-0.dtd"
   xmlns:inkscape="http://www.inkscape.org/namespaces/inkscape"
   inkscape:version="1.0 (4035a4fb49, 2020-05-01)"
   sodipodi:docname="iconInfographic.svg"
   id="svg212"
   version="1.1"
   viewBox="0 0 211.4 58.53">
  <metadata
     id="metadata216">
    <rdf:RDF>
      <cc:Work
         rdf:about="">
        <dc:format>image/svg+xml</dc:format>
        <dc:type
           rdf:resource="http://purl.org/dc/dcmitype/StillImage" />
        <dc:title>Ativo 7</dc:title>
      </cc:Work>
    </rdf:RDF>
  </metadata>
  <sodipodi:namedview
     inkscape:current-layer="Camada_2-2"
     inkscape:window-maximized="1"
     inkscape:window-y="0"
     inkscape:window-x="0"
     inkscape:cy="76.984678"
     inkscape:cx="239.93828"
     inkscape:zoom="1.9517352"
     showgrid="false"
     id="namedview214"
     inkscape:window-height="738"
     inkscape:window-width="1366"
     inkscape:pageshadow="2"
     inkscape:pageopacity="0"
     guidetolerance="10"
     gridtolerance="10"
     objecttolerance="10"
     borderopacity="1"
     bordercolor="#666666"
     pagecolor="#ffffff" />
  <defs
     id="defs196">
    <style
       id="style194">.cls-1{fill:none;stroke:#120a34;stroke-linecap:round;stroke-linejoin:round;stroke-width:3.32px;}.cls-2{fill:#2a4e7c;}.cls-3{font-size:24px;fill:#f7f7f8;font-family:Montserrat-Bold, Montserrat;font-weight:700;}.cls-4{letter-spacing:-0.01em;}</style>
  </defs>
  <title
     id="title198">Ativo 7</title>
  <g
     id="Camada_2-2"
     data-name="Camada 2">
    <rect
       class="cls-1"
       x="6.1799998"
       y="5.1300001"
       width="203.56"
       height="51.740002"
       id="rect200" />
    <rect
       class="cls-2"
       width="203.56"
       height="51.740002"
       id="rect202"
       x="0"
       y="0" />
    <g
       class="cls-3"
       style="font-weight:700;font-size:24px;font-family:Montserrat-Bold, Montserrat;fill:#f7f7f8"
       id="text208"
       transform="translate(14.08,34.32)"
       aria-label="Quero saber +">
      <path
         id="path224"
         style="font-weight:700;font-size:24px;font-family:Montserrat-Bold, Montserrat;fill:#f7f7f8"
         d="m 10.675781,0.31640625 h -0.351562 q -4.324219,0 -6.7265627,-2.39062505 -2.4023438,-2.3906249 -2.4023438,-6.65625 0,-4.2539062 2.390625,-6.6679692 2.4023437,-2.414062 6.6093755,-2.414062 4.253906,0 6.621093,2.390625 2.378906,2.390625 2.378906,6.6914062 0,2.9531251 -1.265625,5.0859375 -1.253906,2.1328126 -3.621093,3.21093755 L 17.835937,3.5039063 H 13.535156 Z M 10.195313,-14.542969 q -2.0625005,0 -3.1992193,1.523438 -1.1367187,1.523437 -1.1367187,4.2890622 0,2.8125001 1.1132812,4.3125001 1.1132813,1.4882812 3.2226568,1.4882812 2.074218,0 3.210937,-1.5234375 1.136719,-1.5234375 1.136719,-4.2773438 0,-2.7656252 -1.136719,-4.2890622 -1.136719,-1.523438 -3.210937,-1.523438 z" />
      <path
         id="path226"
         style="font-weight:700;font-size:24px;font-family:Montserrat-Bold, Montserrat;fill:#f7f7f8"
         d="M 22.277344,-5.109375 V -13.125 h 4.21875 v 1.3125 q 0,1.066406 -0.01172,2.6835937 -0.01172,1.6054688 -0.01172,2.1445313 0,1.5820313 0.08203,2.2851563 0.08203,0.6914062 0.28125,1.0078124 0.257813,0.4101563 0.667969,0.6328125 0.421875,0.2226563 0.960938,0.2226563 1.3125,0 2.0625,-1.0078125 0.75,-1.0078125 0.75,-2.8007812 V -13.125 h 4.195312 V 0 H 31.277344 V -1.8984375 Q 30.328125,-0.75 29.261719,-0.19921875 q -1.054688,0.5390625 -2.332032,0.5390625 -2.273437,0 -3.46875,-1.39453125 -1.183593,-1.3945313 -1.183593,-4.0546875 z" />
      <path
         id="path228"
         style="font-weight:700;font-size:24px;font-family:Montserrat-Bold, Montserrat;fill:#f7f7f8"
         d="m 52.605469,-6.5976562 v 1.1953125 h -9.808594 q 0.152344,1.4765624 1.066406,2.2148437 0.914063,0.7382812 2.554688,0.7382812 1.324218,0 2.707031,-0.3867187 1.394531,-0.3984375 2.859375,-1.1953125 v 3.234375 q -1.488281,0.5625 -2.976563,0.84375 -1.488281,0.29296875 -2.976562,0.29296875 -3.5625,0 -5.542969,-1.80468745 -1.96875,-1.8164063 -1.96875,-5.0859375 0,-3.2109376 1.933594,-5.0507818 1.945312,-1.839843 5.34375,-1.839843 3.09375,0 4.945312,1.863281 1.863282,1.8632812 1.863282,4.9804688 z m -4.3125,-1.3945313 q 0,-1.1953125 -0.703125,-1.921875 -0.691407,-0.7382815 -1.816407,-0.7382815 -1.21875,0 -1.980468,0.6914065 -0.761719,0.6796875 -0.949219,1.96875 z" />
      <path
         id="path230"
         style="letter-spacing:-0.01em"
         d="m 63.655624,-9.5507813 q -0.550781,-0.2578125 -1.101562,-0.375 -0.539063,-0.1289067 -1.089844,-0.1289067 -1.617187,0 -2.496094,1.0429692 -0.867187,1.0312501 -0.867187,2.9648438 V 0 h -4.195313 v -13.125 h 4.195313 v 2.15625 q 0.808594,-1.289063 1.851562,-1.875 1.054688,-0.597656 2.519532,-0.597656 0.210937,0 0.457031,0.02344 0.246094,0.01172 0.714844,0.07031 z" />
      <path
         id="path232"
         d="m 70.281719,-10.441406 q -1.394531,0 -2.132812,1.0078122 -0.726563,0.9960938 -0.726563,2.8828126 0,1.8867187 0.726563,2.8945312 0.738281,0.9960937 2.132812,0.9960937 1.371094,0 2.097656,-0.9960937 0.726563,-1.0078125 0.726563,-2.8945312 0,-1.8867188 -0.726563,-2.8828126 -0.726562,-1.0078122 -2.097656,-1.0078122 z m 0,-3 q 3.386719,0 5.285156,1.828125 1.910157,1.8281247 1.910157,5.0624998 0,3.2343749 -1.910157,5.0625 -1.898437,1.82812495 -5.285156,1.82812495 -3.398437,0 -5.320312,-1.82812495 -1.910157,-1.8281251 -1.910157,-5.0625 0,-3.2343751 1.910157,-5.0624998 1.921875,-1.828125 5.320312,-1.828125 z" />
      <path
         id="path234"
         d="m 99.133282,-12.714844 v 3.1875002 q -1.347657,-0.5625002 -2.601563,-0.8437502 -1.253906,-0.28125 -2.367187,-0.28125 -1.195313,0 -1.78125,0.304688 -0.574219,0.292968 -0.574219,0.9140622 0,0.5039063 0.433594,0.7734375 0.445312,0.2695313 1.582031,0.3984375 l 0.738281,0.1054688 q 3.222656,0.4101563 4.335938,1.3476563 1.113283,0.9375 1.113283,2.9414062 0,2.0976563 -1.546877,3.15234375 -1.546875,1.0546875 -4.617188,1.0546875 -1.300781,0 -2.695312,-0.2109375 Q 89.77,-0.0703125 88.305157,-0.48046875 V -3.6679688 q 1.253906,0.609375 2.566406,0.9140625 1.324219,0.3046875 2.683594,0.3046875 1.230468,0 1.851562,-0.3398437 0.621094,-0.3398438 0.621094,-1.0078125 0,-0.5625 -0.433594,-0.8320312 Q 95.172344,-4.9101562 93.895,-5.0625 l -0.738281,-0.09375 q -2.800781,-0.3515625 -3.925781,-1.3007812 -1.125,-0.9492188 -1.125,-2.8828126 0,-2.0859372 1.429687,-3.0937502 1.429688,-1.007812 4.382813,-1.007812 1.160156,0 2.4375,0.175781 1.277344,0.175781 2.777344,0.550781 z" />
      <path
         id="path236"
         d="m 109.04734,-5.90625 q -1.3125,0 -1.98046,0.4453125 -0.65625,0.4453125 -0.65625,1.3125 0,0.796875 0.52734,1.2539062 0.53906,0.4453125 1.48828,0.4453125 1.18359,0 1.99219,-0.84375 0.80859,-0.8554687 0.80859,-2.1328124 V -5.90625 Z m 6.41016,-1.5820312 V 0 h -4.23047 v -1.9453125 q -0.84375,1.1953125 -1.89844,1.74609375 -1.05468,0.5390625 -2.5664,0.5390625 -2.03906,0 -3.31641,-1.18359375 -1.26562,-1.1953125 -1.26562,-3.09375 0,-2.3085937 1.58203,-3.3867187 1.59375,-1.0781251 4.99219,-1.0781251 h 2.47265 v -0.328125 q 0,-0.9960937 -0.78515,-1.4531252 -0.78516,-0.46875 -2.44922,-0.46875 -1.34766,0 -2.50782,0.269531 -1.16015,0.269532 -2.15625,0.8085942 v -3.1992192 q 1.34766,-0.328125 2.70704,-0.492187 1.35937,-0.175781 2.71875,-0.175781 3.55078,0 5.12109,1.40625 1.58203,1.394531 1.58203,4.5468748 z" />
      <path
         id="path238"
         d="m 126.34422,-2.7070313 q 1.34766,0 2.05078,-0.984375 0.71484,-0.9843749 0.71484,-2.8593749 0,-1.8750001 -0.71484,-2.8593751 -0.70312,-0.9843747 -2.05078,-0.9843747 -1.34766,0 -2.07422,0.9960935 -0.71484,0.984375 -0.71484,2.8476563 0,1.8632812 0.71484,2.8593749 0.72656,0.984375 2.07422,0.984375 z m -2.78906,-8.4960937 q 0.86718,-1.148438 1.92187,-1.6875 1.05469,-0.550781 2.42578,-0.550781 2.42578,0 3.98438,1.933593 1.55859,1.9218755 1.55859,4.9570318 0,3.0351562 -1.55859,4.96875 -1.5586,1.92187495 -3.98438,1.92187495 -1.37109,0 -2.42578,-0.5390625 Q 124.42234,-0.75 123.55516,-1.8984375 V 0 h -4.19532 v -18.234375 h 4.19532 z" />
      <path
         id="path240"
         d="m 149.64109,-6.5976562 v 1.1953125 h -9.80859 q 0.15234,1.4765624 1.06641,2.2148437 0.91406,0.7382812 2.55468,0.7382812 1.32422,0 2.70704,-0.3867187 1.39453,-0.3984375 2.85937,-1.1953125 v 3.234375 q -1.48828,0.5625 -2.97656,0.84375 -1.48828,0.29296875 -2.97656,0.29296875 -3.5625,0 -5.54297,-1.80468745 -1.96875,-1.8164063 -1.96875,-5.0859375 0,-3.2109376 1.93359,-5.0507818 1.94531,-1.839843 5.34375,-1.839843 3.09375,0 4.94531,1.863281 1.86328,1.8632812 1.86328,4.9804688 z m -4.3125,-1.3945313 q 0,-1.1953125 -0.70312,-1.921875 -0.69141,-0.7382815 -1.81641,-0.7382815 -1.21875,0 -1.98047,0.6914065 -0.76171,0.6796875 -0.94921,1.96875 z" />
      <path
         id="path242"
         d="m 162.56688,-9.5507813 q -0.55079,-0.2578125 -1.10157,-0.375 -0.53906,-0.1289067 -1.08984,-0.1289067 -1.61719,0 -2.49609,1.0429692 -0.86719,1.0312501 -0.86719,2.9648438 V 0 h -4.19531 v -13.125 h 4.19531 v 2.15625 q 0.80859,-1.289063 1.85156,-1.875 1.05469,-0.597656 2.51953,-0.597656 0.21094,0 0.45703,0.02344 0.2461,0.01172 0.71485,0.07031 z" />
      <path
         id="path244"
         d="m 182.44188,-15.046875 v 6.140625 h 6.11718 v 2.765625 h -6.11718 V 0 h -2.78907 v -6.140625 h -6.11718 V -8.90625 h 6.11718 v -6.140625 z" />
    </g>
  </g>
</svg>
